<svg xmlns="http://www.w3.org/2000/svg" xmlns:xlink="http://www.w3.org/1999/xlink" width="500" zoomAndPan="magnify" viewBox="0 0 375 374.999991" height="500" preserveAspectRatio="xMidYMid meet" version="1.0"><defs><g/><clipPath id="1bf654b8f6"><path d="M 182 107 L 234 107 L 234 228.671875 L 182 228.671875 Z M 182 107 " clip-rule="nonzero"/></clipPath><clipPath id="959fb3ba28"><path d="M 199.519531 88.773438 L 222.710938 88.773438 L 222.710938 111.96875 L 199.519531 111.96875 Z M 199.519531 88.773438 " clip-rule="nonzero"/></clipPath><clipPath id="b5c8a03bd9"><path d="M 211.117188 88.773438 C 204.710938 88.773438 199.519531 93.964844 199.519531 100.371094 C 199.519531 106.773438 204.710938 111.96875 211.117188 111.96875 C 217.519531 111.96875 222.710938 106.773438 222.710938 100.371094 C 222.710938 93.964844 217.519531 88.773438 211.117188 88.773438 Z M 211.117188 88.773438 " clip-rule="nonzero"/></clipPath><clipPath id="5a3c2c0ced"><path d="M 135.558594 108.648438 L 158.753906 108.648438 L 158.753906 131.84375 L 135.558594 131.84375 Z M 135.558594 108.648438 " clip-rule="nonzero"/></clipPath><clipPath id="601b2cbf8f"><path d="M 147.15625 108.648438 C 140.753906 108.648438 135.558594 113.839844 135.558594 120.246094 C 135.558594 126.648438 140.753906 131.84375 147.15625 131.84375 C 153.5625 131.84375 158.753906 126.648438 158.753906 120.246094 C 158.753906 113.839844 153.5625 108.648438 147.15625 108.648438 Z M 147.15625 108.648438 " clip-rule="nonzero"/></clipPath></defs><rect x="-37.5" width="450" fill="#ffffff" y="-37.499999" height="449.999989" fill-opacity="1"/><rect x="-37.5" width="450" fill="#ffffff" y="-37.499999" height="449.999989" fill-opacity="1"/><g clip-path="url(#1bf654b8f6)"><path fill="#3a978d" d="M 182.328125 118.035156 C 248.859375 73.421875 248.992188 187.917969 191.988281 228.496094 C 230.996094 170.011719 230.265625 108.863281 182.328125 118.035156 Z M 182.328125 118.035156 " fill-opacity="1" fill-rule="nonzero"/></g><path fill="#000000" d="M 180.472656 127.574219 C 107.6875 112.757812 138.0625 193.269531 187.554688 220.644531 C 137.121094 165.617188 144.007812 136.625 180.472656 127.574219 Z M 180.472656 127.574219 " fill-opacity="1" fill-rule="nonzero"/><path fill="#000000" d="M 179.511719 139.679688 C 179.933594 139.503906 180.363281 139.441406 180.777344 139.472656 C 181.730469 139.546875 182.675781 139.253906 183.476562 138.726562 L 183.613281 138.640625 C 184.699219 137.925781 185.359375 136.75 185.492188 135.457031 C 185.644531 133.945312 186.535156 132.539062 187.988281 131.792969 C 190.425781 130.539062 193.457031 131.648438 194.464844 134.28125 C 195.234375 136.296875 194.480469 138.621094 192.679688 139.804688 C 191.429688 140.625 189.96875 140.761719 188.6875 140.347656 C 187.457031 139.953125 186.121094 140.105469 185.042969 140.8125 L 184.691406 141.042969 C 183.953125 141.527344 183.433594 142.261719 183.144531 143.097656 C 182.851562 143.925781 182.164062 144.601562 181.25 144.835938 C 179.6875 145.234375 178.097656 144.203125 177.867188 142.5625 C 177.695312 141.351562 178.378906 140.144531 179.511719 139.675781 Z M 179.511719 139.679688 " fill-opacity="1" fill-rule="nonzero"/><path fill="#000000" d="M 181.988281 148.078125 C 182.921875 147.890625 183.828125 148.0625 184.585938 148.488281 C 185.617188 149.066406 186.8125 149.289062 187.96875 149.015625 L 188.398438 148.914062 C 189.867188 148.570312 191.035156 147.496094 191.589844 146.09375 C 192.394531 144.058594 194.261719 142.519531 196.585938 142.238281 C 200.109375 141.8125 203.296875 144.453125 203.480469 148.058594 C 203.632812 151.078125 201.515625 153.800781 198.554688 154.394531 C 196.53125 154.800781 194.578125 154.183594 193.1875 152.925781 C 192.070312 151.914062 190.535156 151.496094 189.070312 151.84375 L 188.65625 151.9375 C 187.511719 152.210938 186.535156 152.925781 185.878906 153.902344 C 185.289062 154.785156 184.328125 155.410156 183.191406 155.550781 C 180.972656 155.816406 178.972656 154.109375 178.949219 151.8125 C 178.933594 150.015625 180.226562 148.429688 181.988281 148.078125 Z M 181.988281 148.078125 " fill-opacity="1" fill-rule="nonzero"/><path fill="#3a978d" d="M 182.800781 158.542969 C 184.148438 158.394531 185.386719 158.859375 186.277344 159.695312 C 187.292969 160.648438 188.644531 161.164062 190.035156 161.191406 C 191.773438 161.226562 193.472656 160.515625 194.582031 159.175781 C 195.8125 157.691406 197.714844 156.785156 199.824219 156.917969 C 202.929688 157.117188 205.453125 159.628906 205.667969 162.734375 C 205.921875 166.398438 203.023438 169.449219 199.410156 169.449219 C 197.386719 169.449219 195.585938 168.492188 194.441406 167.003906 C 193.386719 165.632812 191.753906 164.832031 190.023438 164.796875 L 189.964844 164.796875 C 188.550781 164.769531 187.183594 165.269531 186.105469 166.183594 C 185.347656 166.824219 184.371094 167.210938 183.296875 167.210938 C 180.734375 167.210938 178.6875 164.992188 178.976562 162.367188 C 179.199219 160.371094 180.804688 158.761719 182.800781 158.542969 Z M 182.800781 158.542969 " fill-opacity="1" fill-rule="nonzero"/><path fill="#3a978d" d="M 177.507812 174.148438 C 177.953125 172.175781 179.75 170.757812 181.769531 170.777344 C 183.480469 170.792969 184.90625 171.761719 185.613281 173.140625 C 186.195312 174.273438 187.203125 175.128906 188.441406 175.433594 L 188.605469 175.476562 C 190.039062 175.828125 191.574219 175.46875 192.65625 174.464844 C 194.277344 172.953125 196.613281 172.246094 198.976562 172.828125 C 202.253906 173.636719 204.476562 176.789062 204.136719 180.144531 C 203.734375 184.136719 200.050781 186.886719 196.167969 186.222656 C 193.796875 185.816406 191.925781 184.238281 191.039062 182.1875 C 190.3125 180.519531 188.886719 179.253906 187.121094 178.820312 L 187.09375 178.8125 C 185.863281 178.511719 184.578125 178.660156 183.402344 179.144531 C 182.746094 179.414062 182.011719 179.53125 181.257812 179.445312 C 178.707031 179.15625 176.925781 176.722656 177.507812 174.148438 Z M 177.507812 174.148438 " fill-opacity="1" fill-rule="nonzero"/><path fill="#3a978d" d="M 176.613281 185.140625 C 177.183594 183.644531 178.800781 182.765625 180.363281 183.117188 C 181.597656 183.390625 182.488281 184.3125 182.800781 185.421875 C 183.082031 186.421875 183.734375 187.28125 184.621094 187.828125 L 184.910156 188.007812 C 185.996094 188.675781 187.328125 188.804688 188.53125 188.371094 C 189.828125 187.898438 191.332031 188.003906 192.625 188.824219 C 194.453125 189.988281 195.234375 192.320312 194.476562 194.347656 C 193.488281 196.992188 190.464844 198.121094 188.015625 196.886719 C 186.59375 196.167969 185.703125 194.816406 185.503906 193.347656 C 185.335938 192.058594 184.644531 190.898438 183.539062 190.21875 L 183.324219 190.085938 C 182.394531 189.511719 181.28125 189.332031 180.203125 189.515625 C 179.703125 189.601562 179.175781 189.574219 178.660156 189.40625 C 176.890625 188.835938 175.945312 186.898438 176.613281 185.140625 Z M 176.613281 185.140625 " fill-opacity="1" fill-rule="nonzero"/><path fill="#000000" d="M 183.503906 134.914062 C 183.503906 135.183594 183.449219 135.441406 183.347656 135.691406 C 183.246094 135.941406 183.097656 136.160156 182.90625 136.351562 C 182.714844 136.542969 182.496094 136.691406 182.246094 136.792969 C 181.996094 136.894531 181.738281 136.949219 181.46875 136.949219 C 181.199219 136.949219 180.9375 136.894531 180.691406 136.792969 C 180.441406 136.691406 180.21875 136.542969 180.03125 136.351562 C 179.839844 136.160156 179.691406 135.941406 179.589844 135.691406 C 179.484375 135.441406 179.433594 135.183594 179.433594 134.914062 C 179.433594 134.644531 179.484375 134.382812 179.589844 134.136719 C 179.691406 133.886719 179.839844 133.667969 180.03125 133.476562 C 180.21875 133.285156 180.441406 133.136719 180.691406 133.035156 C 180.9375 132.929688 181.199219 132.878906 181.46875 132.878906 C 181.738281 132.878906 181.996094 132.929688 182.246094 133.035156 C 182.496094 133.136719 182.714844 133.285156 182.90625 133.476562 C 183.097656 133.667969 183.246094 133.886719 183.347656 134.136719 C 183.449219 134.382812 183.503906 134.644531 183.503906 134.914062 Z M 183.503906 134.914062 " fill-opacity="1" fill-rule="nonzero"/><path fill="#3a978d" d="M 183.503906 193.527344 C 183.503906 193.796875 183.449219 194.058594 183.347656 194.308594 C 183.246094 194.554688 183.097656 194.777344 182.90625 194.96875 C 182.714844 195.15625 182.496094 195.304688 182.246094 195.40625 C 181.996094 195.511719 181.738281 195.5625 181.46875 195.5625 C 181.199219 195.5625 180.9375 195.511719 180.691406 195.40625 C 180.441406 195.304688 180.21875 195.15625 180.03125 194.96875 C 179.839844 194.777344 179.691406 194.554688 179.589844 194.308594 C 179.484375 194.058594 179.433594 193.796875 179.433594 193.527344 C 179.433594 193.257812 179.484375 193 179.589844 192.75 C 179.691406 192.5 179.839844 192.28125 180.03125 192.089844 C 180.21875 191.898438 180.441406 191.753906 180.691406 191.648438 C 180.9375 191.546875 181.199219 191.496094 181.46875 191.496094 C 181.738281 191.496094 181.996094 191.546875 182.246094 191.648438 C 182.496094 191.753906 182.714844 191.898438 182.90625 192.089844 C 183.097656 192.28125 183.246094 192.5 183.347656 192.75 C 183.449219 193 183.503906 193.257812 183.503906 193.527344 Z M 183.503906 193.527344 " fill-opacity="1" fill-rule="nonzero"/><g clip-path="url(#959fb3ba28)"><g clip-path="url(#b5c8a03bd9)"><path fill="#3a978d" d="M 199.519531 88.773438 L 222.710938 88.773438 L 222.710938 111.96875 L 199.519531 111.96875 Z M 199.519531 88.773438 " fill-opacity="1" fill-rule="nonzero"/></g></g><g clip-path="url(#5a3c2c0ced)"><g clip-path="url(#601b2cbf8f)"><path fill="#000000" d="M 135.558594 108.648438 L 158.753906 108.648438 L 158.753906 131.84375 L 135.558594 131.84375 Z M 135.558594 108.648438 " fill-opacity="1" fill-rule="nonzero"/></g></g><g fill="#000000" fill-opacity="1"><g transform="translate(137.340681, 266.812097)"><g><path d="M 34.203125 3.046875 C 33.273438 4.191406 32.15625 5.0625 30.84375 5.65625 C 29.53125 6.257812 28.085938 6.5625 26.515625 6.5625 C 24.390625 6.5625 22.472656 6.101562 20.765625 5.1875 C 19.054688 4.28125 17.101562 2.671875 14.90625 0.359375 C 12.320312 0.0351562 10.019531 -0.785156 8 -2.109375 C 5.976562 -3.441406 4.40625 -5.160156 3.28125 -7.265625 C 2.15625 -9.367188 1.59375 -11.695312 1.59375 -14.25 C 1.59375 -17.050781 2.265625 -19.570312 3.609375 -21.8125 C 4.953125 -24.050781 6.8125 -25.804688 9.1875 -27.078125 C 11.5625 -28.347656 14.226562 -28.984375 17.1875 -28.984375 C 20.144531 -28.984375 22.800781 -28.347656 25.15625 -27.078125 C 27.519531 -25.804688 29.378906 -24.050781 30.734375 -21.8125 C 32.097656 -19.570312 32.78125 -17.050781 32.78125 -14.25 C 32.78125 -10.9375 31.847656 -8.03125 29.984375 -5.53125 C 28.128906 -3.039062 25.664062 -1.304688 22.59375 -0.328125 C 23.269531 0.378906 23.925781 0.890625 24.5625 1.203125 C 25.207031 1.515625 25.894531 1.671875 26.625 1.671875 C 28.394531 1.671875 29.941406 0.960938 31.265625 -0.453125 Z M 8.265625 -14.25 C 8.265625 -12.488281 8.648438 -10.914062 9.421875 -9.53125 C 10.203125 -8.144531 11.269531 -7.0625 12.625 -6.28125 C 13.976562 -5.507812 15.5 -5.125 17.1875 -5.125 C 18.863281 -5.125 20.378906 -5.507812 21.734375 -6.28125 C 23.097656 -7.0625 24.164062 -8.144531 24.9375 -9.53125 C 25.707031 -10.914062 26.09375 -12.488281 26.09375 -14.25 C 26.09375 -16.007812 25.707031 -17.582031 24.9375 -18.96875 C 24.164062 -20.351562 23.097656 -21.429688 21.734375 -22.203125 C 20.378906 -22.984375 18.863281 -23.375 17.1875 -23.375 C 15.5 -23.375 13.976562 -22.984375 12.625 -22.203125 C 11.269531 -21.429688 10.203125 -20.351562 9.421875 -18.96875 C 8.648438 -17.582031 8.265625 -16.007812 8.265625 -14.25 Z M 8.265625 -14.25 "/></g></g></g><g fill="#000000" fill-opacity="1"><g transform="translate(177.447783, 266.812097)"><g><path d="M 3.375 -28.5 L 9.96875 -28.5 L 9.96875 -5.375 L 24.265625 -5.375 L 24.265625 0 L 3.375 0 Z M 3.375 -28.5 "/></g></g></g><g fill="#000000" fill-opacity="1"><g transform="translate(207.783042, 266.812097)"><g><path d="M 17.015625 0.484375 C 14.109375 0.484375 11.484375 -0.144531 9.140625 -1.40625 C 6.796875 -2.664062 4.953125 -4.414062 3.609375 -6.65625 C 2.265625 -8.894531 1.59375 -11.425781 1.59375 -14.25 C 1.59375 -17.070312 2.265625 -19.601562 3.609375 -21.84375 C 4.953125 -24.082031 6.796875 -25.832031 9.140625 -27.09375 C 11.484375 -28.351562 14.125 -28.984375 17.0625 -28.984375 C 19.53125 -28.984375 21.757812 -28.550781 23.75 -27.6875 C 25.75 -26.820312 27.425781 -25.570312 28.78125 -23.9375 L 24.546875 -20.03125 C 22.617188 -22.257812 20.234375 -23.375 17.390625 -23.375 C 15.617188 -23.375 14.039062 -22.984375 12.65625 -22.203125 C 11.28125 -21.429688 10.203125 -20.351562 9.421875 -18.96875 C 8.648438 -17.582031 8.265625 -16.007812 8.265625 -14.25 C 8.265625 -12.488281 8.648438 -10.914062 9.421875 -9.53125 C 10.203125 -8.144531 11.28125 -7.0625 12.65625 -6.28125 C 14.039062 -5.507812 15.617188 -5.125 17.390625 -5.125 C 20.234375 -5.125 22.617188 -6.253906 24.546875 -8.515625 L 28.78125 -4.59375 C 27.425781 -2.945312 25.742188 -1.6875 23.734375 -0.8125 C 21.722656 0.0507812 19.484375 0.484375 17.015625 0.484375 Z M 17.015625 0.484375 "/></g></g></g><g fill="#000000" fill-opacity="1"><g transform="translate(145.196266, 284.79096)"><g><path d="M 11.003906 0 L 9.738281 -8.222656 L 7.953125 -8.222656 L 5.71875 -3.171875 L 3.488281 -8.222656 L 1.714844 -8.222656 L 0.421875 0 L 2.230469 0 L 3.042969 -5.355469 L 5.496094 -0.0117188 L 5.929688 -0.0117188 L 8.386719 -5.355469 L 9.195312 0 Z M 11.003906 0 "/></g></g></g><g fill="#000000" fill-opacity="1"><g transform="translate(160.604127, 284.79096)"><g><path d="M 6.390625 0 L 8.328125 0 L 5.003906 -8.222656 L 3.324219 -8.222656 L 0.09375 0 L 1.984375 0 L 2.546875 -1.550781 L 5.8125 -1.550781 Z M 4.179688 -6.046875 L 5.261719 -3.101562 L 3.101562 -3.101562 Z M 4.179688 -6.046875 "/></g></g></g><g fill="#000000" fill-opacity="1"><g transform="translate(172.994084, 284.79096)"><g><path d="M 6.144531 -8.222656 L 6.144531 -3.207031 L 2.535156 -8.222656 L 0.941406 -8.222656 L 0.941406 0 L 2.679688 0 L 2.679688 -5.132812 L 6.402344 0 L 7.890625 0 L 7.890625 -8.222656 Z M 6.144531 -8.222656 "/></g></g></g><g fill="#000000" fill-opacity="1"><g transform="translate(185.783304, 284.79096)"><g><path d="M 6.390625 0 L 8.328125 0 L 5.003906 -8.222656 L 3.324219 -8.222656 L 0.09375 0 L 1.984375 0 L 2.546875 -1.550781 L 5.8125 -1.550781 Z M 4.179688 -6.046875 L 5.261719 -3.101562 L 3.101562 -3.101562 Z M 4.179688 -6.046875 "/></g></g></g><g fill="#000000" fill-opacity="1"><g transform="translate(198.173261, 284.79096)"><g><path d="M 4.546875 -4.285156 L 4.546875 -2.925781 L 7.011719 -2.925781 C 6.707031 -2.078125 5.777344 -1.515625 4.722656 -1.515625 C 3.242188 -1.515625 2.265625 -2.570312 2.265625 -4.097656 C 2.265625 -5.636719 3.265625 -6.695312 4.722656 -6.695312 C 5.753906 -6.695312 6.625 -6.144531 6.976562 -5.261719 L 8.808594 -5.261719 C 8.421875 -7.105469 6.730469 -8.398438 4.6875 -8.398438 C 2.253906 -8.398438 0.457031 -6.554688 0.457031 -4.097656 C 0.457031 -1.632812 2.300781 0.1875 4.722656 0.1875 C 7.1875 0.1875 8.914062 -1.714844 8.914062 -4.285156 Z M 4.546875 -4.285156 "/></g></g></g><g fill="#000000" fill-opacity="1"><g transform="translate(211.490905, 284.79096)"><g><path d="M 2.714844 -1.644531 L 2.714844 -3.335938 L 5.566406 -3.335938 L 5.566406 -4.945312 L 2.714844 -4.945312 L 2.714844 -6.578125 L 5.871094 -6.578125 L 5.871094 -8.222656 L 0.941406 -8.222656 L 0.941406 0 L 6 0 L 6 -1.644531 Z M 2.714844 -1.644531 "/></g></g></g><g fill="#000000" fill-opacity="1"><g transform="translate(222.013757, 284.79096)"><g><path d="M 5.460938 0 L 7.445312 0 L 5.625 -3.101562 C 6.542969 -3.546875 7.128906 -4.417969 7.128906 -5.496094 C 7.128906 -7.082031 5.894531 -8.222656 4.25 -8.222656 L 0.941406 -8.222656 L 0.941406 0 L 2.714844 0 L 2.714844 -2.796875 L 3.851562 -2.796875 Z M 2.714844 -6.578125 L 4.132812 -6.578125 C 4.886719 -6.578125 5.320312 -6.117188 5.320312 -5.507812 C 5.320312 -4.886719 4.886719 -4.441406 4.132812 -4.441406 L 2.714844 -4.441406 Z M 2.714844 -6.578125 "/></g></g></g></svg>